<svg width="20" height="20" viewBox="0 0 20 20" fill="none" xmlns="http://www.w3.org/2000/svg">
<path d="M9.99902 1.66602C14.6072 1.66602 18.3328 5.40001 18.333 9.99902C18.333 14.5999 14.6074 18.333 9.99902 18.333C5.39917 18.3328 1.66602 14.5997 1.66602 9.99902C1.66619 5.40011 5.39928 1.66619 9.99902 1.66602ZM9.99902 12.4414C9.59917 12.4416 9.27441 12.7671 9.27441 13.167C9.27449 13.5669 9.59953 13.9004 10.0078 13.9004C10.4077 13.9003 10.7323 13.5669 10.7324 13.167C10.7324 12.767 10.4074 12.4414 9.99902 12.4414ZM9.99902 6.10742C9.59923 6.1076 9.26573 6.44185 9.26562 6.84082V10.5244C9.26566 10.9251 9.59919 11.2488 9.99902 11.249C10.399 11.249 10.7246 10.9252 10.7246 10.5244V6.84082C10.7245 6.44174 10.399 6.10742 9.99902 6.10742Z" fill="#4D73F8"/>
</svg>
