<svg width="55" height="54" viewBox="0 0 55 54" fill="none" xmlns="http://www.w3.org/2000/svg">
<path d="M39.0742 0.333008C48.1141 0.333118 54.167 6.6802 54.167 16.1201V37.9092C54.1669 47.3197 48.114 53.6659 39.0742 53.666H15.9541C6.91416 53.666 0.834058 47.3198 0.833984 37.9092V16.1201C0.833984 6.68012 6.9141 0.333008 15.9541 0.333008H39.0742ZM38.6475 19C37.7408 18.0933 36.2475 18.0933 35.3408 19L24.3271 30.0127L19.6611 25.3467C18.7545 24.44 17.2602 24.44 16.3535 25.3467C15.4473 26.2534 15.4471 27.7201 16.3535 28.6533L22.7002 34.9727C23.1535 35.4259 23.7405 35.6396 24.3271 35.6396C24.9405 35.6396 25.5271 35.426 25.9805 34.9727L38.6475 22.3066C39.5541 21.4001 39.5539 19.9333 38.6475 19Z" fill="white"/>
</svg>
